<mxfile host="app.diagrams.net" modified="2023-07-02T19:37:51.010Z" agent="Mozilla/5.0 (Windows NT 10.0; Win64; x64; rv:109.0) Gecko/20100101 Firefox/114.0" etag="3iuBV5v1s_QJRsmZL29q" version="21.3.2" type="device">
  <diagram name="Página-1" id="QVvui4KDN7PBhYGVlwG6">
    <mxGraphModel dx="913" dy="1654" grid="1" gridSize="10" guides="1" tooltips="1" connect="1" arrows="1" fold="1" page="1" pageScale="1" pageWidth="827" pageHeight="1169" math="0" shadow="0">
      <root>
        <mxCell id="0" />
        <mxCell id="1" parent="0" />
        <mxCell id="TIgeuoTWDCC5F0Vsh4Nn-6" style="edgeStyle=orthogonalEdgeStyle;rounded=0;orthogonalLoop=1;jettySize=auto;html=1;entryX=0.5;entryY=0;entryDx=0;entryDy=0;" edge="1" parent="1" source="TIgeuoTWDCC5F0Vsh4Nn-2" target="TIgeuoTWDCC5F0Vsh4Nn-3">
          <mxGeometry relative="1" as="geometry" />
        </mxCell>
        <mxCell id="TIgeuoTWDCC5F0Vsh4Nn-7" style="edgeStyle=orthogonalEdgeStyle;rounded=0;orthogonalLoop=1;jettySize=auto;html=1;entryX=0.5;entryY=0;entryDx=0;entryDy=0;" edge="1" parent="1" source="TIgeuoTWDCC5F0Vsh4Nn-2" target="TIgeuoTWDCC5F0Vsh4Nn-5">
          <mxGeometry relative="1" as="geometry" />
        </mxCell>
        <mxCell id="TIgeuoTWDCC5F0Vsh4Nn-8" style="edgeStyle=orthogonalEdgeStyle;rounded=0;orthogonalLoop=1;jettySize=auto;html=1;entryX=0.5;entryY=0;entryDx=0;entryDy=0;" edge="1" parent="1" source="TIgeuoTWDCC5F0Vsh4Nn-2" target="TIgeuoTWDCC5F0Vsh4Nn-4">
          <mxGeometry relative="1" as="geometry" />
        </mxCell>
        <mxCell id="TIgeuoTWDCC5F0Vsh4Nn-2" value="&lt;div&gt;Municipality&lt;/div&gt;&lt;div&gt;(Municipalidad)&lt;br&gt;&lt;/div&gt;" style="ellipse;whiteSpace=wrap;html=1;" vertex="1" parent="1">
          <mxGeometry x="310" y="30" width="120" height="80" as="geometry" />
        </mxCell>
        <mxCell id="TIgeuoTWDCC5F0Vsh4Nn-3" value="Church (Iglesia)" style="swimlane;whiteSpace=wrap;html=1;" vertex="1" parent="1">
          <mxGeometry x="40" y="170" width="200" height="200" as="geometry" />
        </mxCell>
        <mxCell id="TIgeuoTWDCC5F0Vsh4Nn-9" value="&lt;div align=&quot;left&quot;&gt;- Lista de creyentes&lt;br&gt;&lt;/div&gt;&lt;div align=&quot;left&quot;&gt;- Bautizado por DNI&lt;br&gt;&lt;/div&gt;&lt;div&gt;- Nuevo creyente&lt;/div&gt;&lt;div&gt;- Casado por religioso&lt;br&gt;&lt;/div&gt;" style="text;html=1;align=left;verticalAlign=middle;resizable=0;points=[];autosize=1;strokeColor=none;fillColor=none;" vertex="1" parent="TIgeuoTWDCC5F0Vsh4Nn-3">
          <mxGeometry x="20" y="58" width="140" height="70" as="geometry" />
        </mxCell>
        <mxCell id="TIgeuoTWDCC5F0Vsh4Nn-4" value="Hospital" style="swimlane;whiteSpace=wrap;html=1;" vertex="1" parent="1">
          <mxGeometry x="270" y="170" width="200" height="200" as="geometry" />
        </mxCell>
        <mxCell id="TIgeuoTWDCC5F0Vsh4Nn-17" value="&lt;div&gt;- Lista de pacientes&lt;/div&gt;&lt;div&gt;- Lista de pacientes en atención&lt;/div&gt;&lt;div&gt;- Alta o salida de paciente&lt;/div&gt;&lt;div&gt;- Observaciones del médico&lt;br&gt;&lt;/div&gt;" style="text;html=1;align=left;verticalAlign=middle;resizable=0;points=[];autosize=1;strokeColor=none;fillColor=none;" vertex="1" parent="TIgeuoTWDCC5F0Vsh4Nn-4">
          <mxGeometry x="10" y="75" width="190" height="70" as="geometry" />
        </mxCell>
        <mxCell id="TIgeuoTWDCC5F0Vsh4Nn-5" value="Sunat" style="swimlane;whiteSpace=wrap;html=1;" vertex="1" parent="1">
          <mxGeometry x="500" y="170" width="280" height="200" as="geometry" />
        </mxCell>
        <mxCell id="TIgeuoTWDCC5F0Vsh4Nn-10" value="Church (H2)" style="swimlane;fontStyle=0;childLayout=stackLayout;horizontal=1;startSize=30;horizontalStack=0;resizeParent=1;resizeParentMax=0;resizeLast=0;collapsible=1;marginBottom=0;whiteSpace=wrap;html=1;" vertex="1" parent="1">
          <mxGeometry x="50" y="390" width="140" height="150" as="geometry" />
        </mxCell>
        <mxCell id="TIgeuoTWDCC5F0Vsh4Nn-50" value="Id (Long)" style="text;strokeColor=none;fillColor=none;align=left;verticalAlign=middle;spacingLeft=4;spacingRight=4;overflow=hidden;points=[[0,0.5],[1,0.5]];portConstraint=eastwest;rotatable=0;whiteSpace=wrap;html=1;" vertex="1" parent="TIgeuoTWDCC5F0Vsh4Nn-10">
          <mxGeometry y="30" width="140" height="30" as="geometry" />
        </mxCell>
        <mxCell id="TIgeuoTWDCC5F0Vsh4Nn-52" value="IdMunicipality (Long)" style="text;strokeColor=none;fillColor=none;align=left;verticalAlign=middle;spacingLeft=4;spacingRight=4;overflow=hidden;points=[[0,0.5],[1,0.5]];portConstraint=eastwest;rotatable=0;whiteSpace=wrap;html=1;" vertex="1" parent="TIgeuoTWDCC5F0Vsh4Nn-10">
          <mxGeometry y="60" width="140" height="30" as="geometry" />
        </mxCell>
        <mxCell id="TIgeuoTWDCC5F0Vsh4Nn-16" value="Baptized (Boolean)" style="text;strokeColor=none;fillColor=none;align=left;verticalAlign=middle;spacingLeft=4;spacingRight=4;overflow=hidden;points=[[0,0.5],[1,0.5]];portConstraint=eastwest;rotatable=0;whiteSpace=wrap;html=1;" vertex="1" parent="TIgeuoTWDCC5F0Vsh4Nn-10">
          <mxGeometry y="90" width="140" height="30" as="geometry" />
        </mxCell>
        <mxCell id="TIgeuoTWDCC5F0Vsh4Nn-15" value="Married (Boolean)" style="text;strokeColor=none;fillColor=none;align=left;verticalAlign=middle;spacingLeft=4;spacingRight=4;overflow=hidden;points=[[0,0.5],[1,0.5]];portConstraint=eastwest;rotatable=0;whiteSpace=wrap;html=1;" vertex="1" parent="TIgeuoTWDCC5F0Vsh4Nn-10">
          <mxGeometry y="120" width="140" height="30" as="geometry" />
        </mxCell>
        <mxCell id="TIgeuoTWDCC5F0Vsh4Nn-18" value="Hospital (MongoDB)" style="swimlane;fontStyle=0;childLayout=stackLayout;horizontal=1;startSize=30;horizontalStack=0;resizeParent=1;resizeParentMax=0;resizeLast=0;collapsible=1;marginBottom=0;whiteSpace=wrap;html=1;" vertex="1" parent="1">
          <mxGeometry x="285" y="390" width="170" height="210" as="geometry" />
        </mxCell>
        <mxCell id="TIgeuoTWDCC5F0Vsh4Nn-51" value="Id (Long)" style="text;strokeColor=none;fillColor=none;align=left;verticalAlign=middle;spacingLeft=4;spacingRight=4;overflow=hidden;points=[[0,0.5],[1,0.5]];portConstraint=eastwest;rotatable=0;whiteSpace=wrap;html=1;" vertex="1" parent="TIgeuoTWDCC5F0Vsh4Nn-18">
          <mxGeometry y="30" width="170" height="30" as="geometry" />
        </mxCell>
        <mxCell id="TIgeuoTWDCC5F0Vsh4Nn-55" value="IdMunicipality (Long)" style="text;strokeColor=none;fillColor=none;align=left;verticalAlign=middle;spacingLeft=4;spacingRight=4;overflow=hidden;points=[[0,0.5],[1,0.5]];portConstraint=eastwest;rotatable=0;whiteSpace=wrap;html=1;" vertex="1" parent="TIgeuoTWDCC5F0Vsh4Nn-18">
          <mxGeometry y="60" width="170" height="30" as="geometry" />
        </mxCell>
        <mxCell id="TIgeuoTWDCC5F0Vsh4Nn-32" value="Health_insurance (Long)" style="text;strokeColor=none;fillColor=none;align=left;verticalAlign=middle;spacingLeft=4;spacingRight=4;overflow=hidden;points=[[0,0.5],[1,0.5]];portConstraint=eastwest;rotatable=0;whiteSpace=wrap;html=1;" vertex="1" parent="TIgeuoTWDCC5F0Vsh4Nn-18">
          <mxGeometry y="90" width="170" height="30" as="geometry" />
        </mxCell>
        <mxCell id="TIgeuoTWDCC5F0Vsh4Nn-22" value="Date_of_admission (Date)" style="text;strokeColor=none;fillColor=none;align=left;verticalAlign=middle;spacingLeft=4;spacingRight=4;overflow=hidden;points=[[0,0.5],[1,0.5]];portConstraint=eastwest;rotatable=0;whiteSpace=wrap;html=1;" vertex="1" parent="TIgeuoTWDCC5F0Vsh4Nn-18">
          <mxGeometry y="120" width="170" height="30" as="geometry" />
        </mxCell>
        <mxCell id="TIgeuoTWDCC5F0Vsh4Nn-23" value="Exit (Boolean)" style="text;strokeColor=none;fillColor=none;align=left;verticalAlign=middle;spacingLeft=4;spacingRight=4;overflow=hidden;points=[[0,0.5],[1,0.5]];portConstraint=eastwest;rotatable=0;whiteSpace=wrap;html=1;" vertex="1" parent="TIgeuoTWDCC5F0Vsh4Nn-18">
          <mxGeometry y="150" width="170" height="30" as="geometry" />
        </mxCell>
        <mxCell id="TIgeuoTWDCC5F0Vsh4Nn-24" value="Observations (List&amp;lt;String&amp;gt;)" style="text;strokeColor=none;fillColor=none;align=left;verticalAlign=middle;spacingLeft=4;spacingRight=4;overflow=hidden;points=[[0,0.5],[1,0.5]];portConstraint=eastwest;rotatable=0;whiteSpace=wrap;html=1;" vertex="1" parent="TIgeuoTWDCC5F0Vsh4Nn-18">
          <mxGeometry y="180" width="170" height="30" as="geometry" />
        </mxCell>
        <mxCell id="TIgeuoTWDCC5F0Vsh4Nn-33" value="&lt;div&gt;- Tipo de cambio del día (hoy)&lt;/div&gt;&lt;div&gt;- Casa de cambio mejor para compra de dólares&lt;br&gt;&lt;/div&gt;&lt;div&gt;- Casa de cambio mejor para venta de dólares&lt;br&gt;&lt;/div&gt;&lt;div&gt;- Simular tipo de cambio &lt;br&gt;&lt;/div&gt;" style="text;html=1;align=left;verticalAlign=middle;resizable=0;points=[];autosize=1;strokeColor=none;fillColor=none;" vertex="1" parent="1">
          <mxGeometry x="510" y="250" width="280" height="70" as="geometry" />
        </mxCell>
        <mxCell id="TIgeuoTWDCC5F0Vsh4Nn-34" value="Sunat (MySQL)" style="swimlane;fontStyle=0;childLayout=stackLayout;horizontal=1;startSize=30;horizontalStack=0;resizeParent=1;resizeParentMax=0;resizeLast=0;collapsible=1;marginBottom=0;whiteSpace=wrap;html=1;" vertex="1" parent="1">
          <mxGeometry x="540" y="390" width="200" height="150" as="geometry" />
        </mxCell>
        <mxCell id="TIgeuoTWDCC5F0Vsh4Nn-57" value="Id (Long)" style="text;strokeColor=none;fillColor=none;align=left;verticalAlign=middle;spacingLeft=4;spacingRight=4;overflow=hidden;points=[[0,0.5],[1,0.5]];portConstraint=eastwest;rotatable=0;whiteSpace=wrap;html=1;" vertex="1" parent="TIgeuoTWDCC5F0Vsh4Nn-34">
          <mxGeometry y="30" width="200" height="30" as="geometry" />
        </mxCell>
        <mxCell id="TIgeuoTWDCC5F0Vsh4Nn-56" value="IdMunicipality (Long)" style="text;strokeColor=none;fillColor=none;align=left;verticalAlign=middle;spacingLeft=4;spacingRight=4;overflow=hidden;points=[[0,0.5],[1,0.5]];portConstraint=eastwest;rotatable=0;whiteSpace=wrap;html=1;" vertex="1" parent="TIgeuoTWDCC5F0Vsh4Nn-34">
          <mxGeometry y="60" width="200" height="30" as="geometry" />
        </mxCell>
        <mxCell id="TIgeuoTWDCC5F0Vsh4Nn-39" value="Exchange_rate_purchase (Double)" style="text;strokeColor=none;fillColor=none;align=left;verticalAlign=middle;spacingLeft=4;spacingRight=4;overflow=hidden;points=[[0,0.5],[1,0.5]];portConstraint=eastwest;rotatable=0;whiteSpace=wrap;html=1;" vertex="1" parent="TIgeuoTWDCC5F0Vsh4Nn-34">
          <mxGeometry y="90" width="200" height="30" as="geometry" />
        </mxCell>
        <mxCell id="TIgeuoTWDCC5F0Vsh4Nn-40" value="Exchange_rate_sale (Double)" style="text;strokeColor=none;fillColor=none;align=left;verticalAlign=middle;spacingLeft=4;spacingRight=4;overflow=hidden;points=[[0,0.5],[1,0.5]];portConstraint=eastwest;rotatable=0;whiteSpace=wrap;html=1;" vertex="1" parent="TIgeuoTWDCC5F0Vsh4Nn-34">
          <mxGeometry y="120" width="200" height="30" as="geometry" />
        </mxCell>
        <mxCell id="TIgeuoTWDCC5F0Vsh4Nn-41" value="Municipality (MongoDB)" style="swimlane;fontStyle=0;childLayout=stackLayout;horizontal=1;startSize=30;horizontalStack=0;resizeParent=1;resizeParentMax=0;resizeLast=0;collapsible=1;marginBottom=0;whiteSpace=wrap;html=1;" vertex="1" parent="1">
          <mxGeometry x="300" y="-220" width="170" height="240" as="geometry" />
        </mxCell>
        <mxCell id="TIgeuoTWDCC5F0Vsh4Nn-49" value="Id (Long)" style="text;strokeColor=none;fillColor=none;align=left;verticalAlign=middle;spacingLeft=4;spacingRight=4;overflow=hidden;points=[[0,0.5],[1,0.5]];portConstraint=eastwest;rotatable=0;whiteSpace=wrap;html=1;" vertex="1" parent="TIgeuoTWDCC5F0Vsh4Nn-41">
          <mxGeometry y="30" width="170" height="30" as="geometry" />
        </mxCell>
        <mxCell id="TIgeuoTWDCC5F0Vsh4Nn-43" value="DNI (String)" style="text;strokeColor=none;fillColor=none;align=left;verticalAlign=middle;spacingLeft=4;spacingRight=4;overflow=hidden;points=[[0,0.5],[1,0.5]];portConstraint=eastwest;rotatable=0;whiteSpace=wrap;html=1;" vertex="1" parent="TIgeuoTWDCC5F0Vsh4Nn-41">
          <mxGeometry y="60" width="170" height="30" as="geometry" />
        </mxCell>
        <mxCell id="TIgeuoTWDCC5F0Vsh4Nn-44" value="Name (String)" style="text;strokeColor=none;fillColor=none;align=left;verticalAlign=middle;spacingLeft=4;spacingRight=4;overflow=hidden;points=[[0,0.5],[1,0.5]];portConstraint=eastwest;rotatable=0;whiteSpace=wrap;html=1;" vertex="1" parent="TIgeuoTWDCC5F0Vsh4Nn-41">
          <mxGeometry y="90" width="170" height="30" as="geometry" />
        </mxCell>
        <mxCell id="TIgeuoTWDCC5F0Vsh4Nn-45" value="Last_name (String)" style="text;strokeColor=none;fillColor=none;align=left;verticalAlign=middle;spacingLeft=4;spacingRight=4;overflow=hidden;points=[[0,0.5],[1,0.5]];portConstraint=eastwest;rotatable=0;whiteSpace=wrap;html=1;" vertex="1" parent="TIgeuoTWDCC5F0Vsh4Nn-41">
          <mxGeometry y="120" width="170" height="30" as="geometry" />
        </mxCell>
        <mxCell id="TIgeuoTWDCC5F0Vsh4Nn-54" value="Address (String)" style="text;strokeColor=none;fillColor=none;align=left;verticalAlign=middle;spacingLeft=4;spacingRight=4;overflow=hidden;points=[[0,0.5],[1,0.5]];portConstraint=eastwest;rotatable=0;whiteSpace=wrap;html=1;" vertex="1" parent="TIgeuoTWDCC5F0Vsh4Nn-41">
          <mxGeometry y="150" width="170" height="30" as="geometry" />
        </mxCell>
        <mxCell id="TIgeuoTWDCC5F0Vsh4Nn-53" value="Cell_number (Long)" style="text;strokeColor=none;fillColor=none;align=left;verticalAlign=middle;spacingLeft=4;spacingRight=4;overflow=hidden;points=[[0,0.5],[1,0.5]];portConstraint=eastwest;rotatable=0;whiteSpace=wrap;html=1;" vertex="1" parent="TIgeuoTWDCC5F0Vsh4Nn-41">
          <mxGeometry y="180" width="170" height="30" as="geometry" />
        </mxCell>
        <mxCell id="TIgeuoTWDCC5F0Vsh4Nn-46" value="Birthdate (Date)" style="text;strokeColor=none;fillColor=none;align=left;verticalAlign=middle;spacingLeft=4;spacingRight=4;overflow=hidden;points=[[0,0.5],[1,0.5]];portConstraint=eastwest;rotatable=0;whiteSpace=wrap;html=1;" vertex="1" parent="TIgeuoTWDCC5F0Vsh4Nn-41">
          <mxGeometry y="210" width="170" height="30" as="geometry" />
        </mxCell>
      </root>
    </mxGraphModel>
  </diagram>
</mxfile>
